<?xml version="1.0" standalone="no"?>
<!DOCTYPE svg PUBLIC "-//W3C//DTD SVG 20010904//EN"
 "http://www.w3.org/TR/2001/REC-SVG-20010904/DTD/svg10.dtd">
<svg version="1.0" xmlns="http://www.w3.org/2000/svg"
 width="1024.000000pt" height="1024.000000pt" viewBox="0 0 1024.000000 1024.000000"
 preserveAspectRatio="xMidYMid meet">
 <!-- Make this icon rounded -->
<!-- <rect width="100%" height="100%" fill="white" rx="100" ry="100" /> -->
  <rect width="100%" height="100%" fill="white" rx="512" ry="512" />

<g transform="translate(0.000000,1024.000000) scale(0.100000,-0.100000)"
fill="#000000" stroke="none">
<path d="M3854 9679 c-29 -32 -23 -151 15 -342 43 -211 51 -236 213 -647 297
-751 487 -1337 578 -1784 38 -186 37 -205 -10 -140 -57 80 -228 245 -342 330
-350 261 -811 480 -1236 590 -104 27 -114 28 -140 14 -19 -11 -28 -25 -30 -49
-6 -58 34 -86 203 -141 323 -106 553 -214 833 -392 260 -165 405 -292 527
-464 204 -288 313 -528 335 -739 18 -177 24 -602 11 -770 -13 -165 -30 -295
-40 -294 -3 0 -24 36 -46 81 -283 570 -796 1117 -1470 1568 -478 319 -1140
615 -1695 756 -220 57 -286 64 -320 36 -21 -17 -23 -24 -15 -48 6 -16 25 -38
43 -50 43 -29 180 -81 262 -100 103 -24 504 -162 635 -219 233 -101 295 -130
295 -137 0 -5 -8 -8 -18 -8 -35 0 -227 -62 -323 -104 -192 -85 -411 -237 -571
-395 -96 -96 -116 -129 -104 -175 13 -54 88 -39 172 35 168 150 435 314 647
398 100 40 307 91 399 98 97 7 118 -2 365 -166 497 -330 905 -712 1196 -1120
192 -268 350 -579 415 -816 84 -305 82 -335 -63 -1055 -58 -289 -88 -454 -139
-780 -8 -52 -33 -257 -56 -455 -22 -198 -52 -453 -67 -567 l-28 -208 -990 0
c-650 0 -1003 -4 -1027 -10 -21 -6 -44 -21 -53 -33 -21 -30 -19 -80 4 -108
l19 -24 2722 -3 2721 -2 24 24 c33 33 33 85 1 123 l-24 28 -1257 3 -1256 2
-59 123 c-106 219 -171 446 -206 707 -41 315 7 1041 106 1612 14 78 85 207
178 323 90 113 259 281 372 372 l105 84 55 -6 c101 -12 295 -54 391 -85 115
-38 198 -75 351 -157 125 -68 160 -75 202 -42 49 39 27 77 -88 153 -166 110
-448 227 -643 267 -35 7 -63 16 -63 20 0 23 312 180 444 223 260 86 530 96
776 31 50 -14 106 -25 123 -25 73 0 104 67 50 109 -32 26 -187 74 -308 97
-123 22 -409 15 -544 -15 -422 -93 -842 -339 -1208 -707 -93 -92 -143 -136
-143 -124 0 10 4 62 10 116 5 55 16 187 24 294 13 170 19 206 46 285 117 336
482 896 746 1145 221 208 504 375 794 468 204 66 275 77 515 77 116 0 227 -4
248 -8 64 -14 209 -176 351 -394 64 -97 179 -324 226 -444 37 -92 74 -118 120
-81 37 30 37 92 1 202 -62 183 -157 359 -287 533 -41 53 -72 97 -70 97 3 0 69
-25 148 -56 244 -94 612 -281 850 -431 102 -65 144 -71 186 -29 22 22 25 30
16 53 -42 122 -871 553 -1299 677 -214 62 -507 84 -735 56 -357 -44 -760 -205
-982 -391 -27 -22 -48 -37 -48 -32 0 4 9 37 20 73 48 152 105 459 135 722 18
153 97 637 121 736 31 131 20 212 -27 212 -22 0 -41 -27 -74 -107 -72 -179
-138 -454 -220 -928 -77 -438 -105 -556 -176 -738 -81 -203 -159 -334 -410
-689 -66 -92 -134 -192 -152 -222 l-34 -56 -12 183 c-32 471 -112 953 -231
1393 -23 82 -106 343 -185 581 -138 411 -145 435 -145 511 0 200 116 469 299
693 25 31 87 102 136 158 141 160 155 179 155 215 0 44 -29 71 -67 61 -47 -11
-126 -78 -239 -202 -190 -208 -334 -419 -396 -580 -17 -46 -34 -83 -38 -83 -4
0 -24 39 -45 88 -230 525 -254 592 -330 937 -28 125 -43 165 -78 203 -26 28
-48 28 -73 1z"/>
</g>
</svg>
